<svg version="1.1" viewBox="0.0 0.0 600.0 371.0" fill="none" stroke="none" stroke-linecap="square" stroke-miterlimit="10" width="600" height="371" xmlns:xlink="http://www.w3.org/1999/xlink" xmlns="http://www.w3.org/2000/svg"><path fill="#ffffff" d="M0 0L600.0 0L600.0 371.0L0 371.0L0 0Z" fill-rule="nonzero"/><path stroke="#333333" stroke-width="1.0" stroke-linecap="butt" d="M45.5 300.5L581.5 300.5" fill-rule="nonzero"/><path stroke="#cccccc" stroke-width="1.0" stroke-linecap="butt" d="M45.5 240.5L581.5 240.5" fill-rule="nonzero"/><path stroke="#cccccc" stroke-width="1.0" stroke-linecap="butt" d="M45.5 181.5L581.5 181.5" fill-rule="nonzero"/><path stroke="#cccccc" stroke-width="1.0" stroke-linecap="butt" d="M45.5 121.5L581.5 121.5" fill-rule="nonzero"/><path stroke="#cccccc" stroke-width="1.0" stroke-linecap="butt" d="M45.5 61.5L581.5 61.5" fill-rule="nonzero"/><clipPath id="id_0"><path d="M45.55 61.916668L581.45 61.916668L581.45 300.45L45.55 300.45L45.55 61.916668Z" clip-rule="nonzero"/></clipPath><path stroke="#000000" stroke-width="2.0" stroke-linecap="butt" stroke-opacity="0.0" clip-path="url(#id_0)" d="M152.0 300.0L47.0 300.0L47.0 273.0C47.0 271.89542 47.89543 271.0 49.0 271.0L150.0 271.0C151.10457 271.0 152.0 271.89542 152.0 273.0Z" fill-rule="nonzero"/><path fill="#4f81bd" clip-path="url(#id_0)" d="M152.0 300.0L47.0 300.0L47.0 273.0C47.0 271.89542 47.89543 271.0 49.0 271.0L150.0 271.0C151.10457 271.0 152.0 271.89542 152.0 273.0Z" fill-rule="nonzero"/><path stroke="#000000" stroke-width="2.0" stroke-linecap="butt" stroke-opacity="0.0" clip-path="url(#id_0)" d="M259.0 300.0L154.0 300.0L154.0 243.0C154.0 241.89543 154.89543 241.0 156.0 241.0L257.0 241.0C258.10458 241.0 259.0 241.89543 259.0 243.0Z" fill-rule="nonzero"/><path fill="#4f81bd" clip-path="url(#id_0)" d="M259.0 300.0L154.0 300.0L154.0 243.0C154.0 241.89543 154.89543 241.0 156.0 241.0L257.0 241.0C258.10458 241.0 259.0 241.89543 259.0 243.0Z" fill-rule="nonzero"/><path stroke="#000000" stroke-width="2.0" stroke-linecap="butt" stroke-opacity="0.0" clip-path="url(#id_0)" d="M367.0 300.0L262.0 300.0L262.0 153.0C262.0 151.89543 262.89542 151.0 264.0 151.0L365.0 151.0C366.10458 151.0 367.0 151.89543 367.0 153.0Z" fill-rule="nonzero"/><path fill="#4f81bd" clip-path="url(#id_0)" d="M367.0 300.0L262.0 300.0L262.0 153.0C262.0 151.89543 262.89542 151.0 264.0 151.0L365.0 151.0C366.10458 151.0 367.0 151.89543 367.0 153.0Z" fill-rule="nonzero"/><path stroke="#000000" stroke-width="2.0" stroke-linecap="butt" stroke-opacity="0.0" clip-path="url(#id_0)" d="M474.0 300.0L369.0 300.0L369.0 94.0C369.0 92.89543 369.89542 92.0 371.0 92.0L472.0 92.0C473.10458 92.0 474.0 92.89543 474.0 94.0Z" fill-rule="nonzero"/><path fill="#4f81bd" clip-path="url(#id_0)" d="M474.0 300.0L369.0 300.0L369.0 94.0C369.0 92.89543 369.89542 92.0 371.0 92.0L472.0 92.0C473.10458 92.0 474.0 92.89543 474.0 94.0Z" fill-rule="nonzero"/><path stroke="#000000" stroke-width="2.0" stroke-linecap="butt" stroke-opacity="0.0" clip-path="url(#id_0)" d="M581.0 300.0L476.0 300.0L476.0 183.0C476.0 181.89543 476.89542 181.0 478.0 181.0L579.0 181.0C580.10455 181.0 581.0 181.89543 581.0 183.0Z" fill-rule="nonzero"/><path fill="#4f81bd" clip-path="url(#id_0)" d="M581.0 300.0L476.0 300.0L476.0 183.0C476.0 181.89543 476.89542 181.0 478.0 181.0L579.0 181.0C580.10455 181.0 581.0 181.89543 581.0 183.0Z" fill-rule="nonzero"/><path fill="#000000" d="M297.89062 349.45L297.89062 340.85626L299.60938 340.85626L301.64062 346.9344Q301.92188 347.79376 302.04688 348.21564Q302.1875 347.7469 302.5 346.84064L304.5625 340.85626L306.09375 340.85626L306.09375 349.45L305.0 349.45L305.0 342.2625L302.5 349.45L301.46875 349.45L298.98438 342.1375L298.98438 349.45L297.89062 349.45ZM311.04688 347.45L312.14062 347.575Q311.89062 348.52814 311.1875 349.0594Q310.48438 349.59064 309.40625 349.59064Q308.04688 349.59064 307.23438 348.7469Q306.4375 347.90314 306.4375 346.3875Q306.4375 344.825 307.25 343.96564Q308.0625 343.09064 309.34375 343.09064Q310.59375 343.09064 311.375 343.9344Q312.17188 344.77814 312.17188 346.325Q312.17188 346.41876 312.17188 346.60626L307.53125 346.60626Q307.59375 347.6375 308.10938 348.1844Q308.625 348.71564 309.40625 348.71564Q309.98438 348.71564 310.39062 348.41876Q310.8125 348.10626 311.04688 347.45ZM307.59375 345.7469L311.0625 345.7469Q311.0 344.95 310.67188 344.5594Q310.15625 343.95 309.35938 343.95Q308.625 343.95 308.125 344.4344Q307.64062 344.91876 307.59375 345.7469ZM308.71875 342.45L309.5 340.8094L310.89062 340.8094L309.59375 342.45L308.71875 342.45ZM317.82812 349.45L317.82812 348.66876Q317.23438 349.59064 316.09375 349.59064Q315.34375 349.59064 314.71875 349.1844Q314.09375 348.7625 313.75 348.02814Q313.40625 347.29376 313.40625 346.34064Q313.40625 345.41876 313.71875 344.65314Q314.03125 343.8875 314.65625 343.4969Q315.28125 343.09064 316.04688 343.09064Q316.60938 343.09064 317.04688 343.325Q317.48438 343.5594 317.76562 343.9344L317.76562 340.85626L318.8125 340.85626L318.8125 349.45L317.82812 349.45ZM314.5 346.34064Q314.5 347.54376 315.0 348.1375Q315.5 348.71564 316.1875 348.71564Q316.875 348.71564 317.35938 348.15314Q317.84375 347.59064 317.84375 346.4344Q317.84375 345.15314 317.34375 344.5594Q316.85938 343.96564 316.14062 343.96564Q315.4375 343.96564 314.96875 344.54376Q314.5 345.10626 314.5 346.34064ZM320.79688 342.075L320.79688 340.85626L321.85938 340.85626L321.85938 342.075L320.79688 342.075ZM320.79688 349.45L320.79688 343.23126L321.85938 343.23126L321.85938 349.45L320.79688 349.45ZM327.85938 348.6844Q327.26562 349.1844 326.71875 349.3875Q326.1875 349.59064 325.5625 349.59064Q324.53125 349.59064 323.98438 349.09064Q323.4375 348.59064 323.4375 347.8094Q323.4375 347.35626 323.64062 346.98126Q323.84375 346.59064 324.1875 346.3719Q324.53125 346.1375 324.95312 346.02814Q325.25 345.9344 325.89062 345.85626Q327.15625 345.71564 327.76562 345.4969Q327.76562 345.27814 327.76562 345.23126Q327.76562 344.575 327.46875 344.3094Q327.0625 343.96564 326.26562 343.96564Q325.53125 343.96564 325.17188 344.23126Q324.8125 344.48126 324.64062 345.1375L323.60938 344.9969Q323.75 344.34064 324.07812 343.9344Q324.40625 343.52814 325.01562 343.3094Q325.625 343.09064 326.42188 343.09064Q327.21875 343.09064 327.71875 343.27814Q328.21875 343.46564 328.45312 343.7469Q328.6875 344.02814 328.78125 344.46564Q328.82812 344.73126 328.82812 345.4344L328.82812 346.84064Q328.82812 348.3094 328.89062 348.7Q328.96875 349.09064 329.17188 349.45L328.0625 349.45Q327.90625 349.1219 327.85938 348.6844ZM327.76562 346.325Q327.1875 346.5594 326.04688 346.73126Q325.39062 346.825 325.125 346.95Q324.85938 347.0594 324.70312 347.27814Q324.5625 347.4969 324.5625 347.77814Q324.5625 348.2 324.875 348.48126Q325.20312 348.7625 325.8125 348.7625Q326.42188 348.7625 326.89062 348.4969Q327.375 348.23126 327.59375 347.7625Q327.76562 347.40314 327.76562 346.71564L327.76562 346.325Z" fill-rule="nonzero"/><path fill="#000000" d="M33.05 300.21564Q33.05 298.6844 33.3625 297.7625Q33.675 296.825 34.284374 296.325Q34.909374 295.825 35.846874 295.825Q36.534374 295.825 37.05 296.10626Q37.58125 296.3875 37.925 296.91876Q38.26875 297.4344 38.45625 298.1844Q38.64375 298.9344 38.64375 300.21564Q38.64375 301.73126 38.33125 302.65314Q38.034374 303.575 37.409374 304.09064Q36.8 304.59064 35.846874 304.59064Q34.6125 304.59064 33.89375 303.7Q33.05 302.6375 33.05 300.21564ZM34.128124 300.21564Q34.128124 302.325 34.628124 303.02814Q35.128124 303.73126 35.846874 303.73126Q36.58125 303.73126 37.065624 303.02814Q37.565624 302.325 37.565624 300.21564Q37.565624 298.09064 37.065624 297.40314Q36.58125 296.7 35.83125 296.7Q35.1125 296.7 34.675 297.3094Q34.128124 298.09064 34.128124 300.21564Z" fill-rule="nonzero"/><path fill="#000000" d="M38.596874 243.80104L38.596874 244.81667L32.909374 244.81667Q32.909374 244.44167 33.034374 244.08229Q33.253124 243.50417 33.721874 242.94167Q34.20625 242.37917 35.1125 241.64479Q36.51875 240.48854 37.003124 239.81667Q37.503124 239.14479 37.503124 238.55104Q37.503124 237.92604 37.05 237.50417Q36.596874 237.06667 35.878124 237.06667Q35.1125 237.06667 34.659374 237.51979Q34.20625 237.97292 34.190624 238.78542L33.1125 238.67604Q33.221874 237.45729 33.940624 236.83229Q34.675 236.19167 35.909374 236.19167Q37.14375 236.19167 37.8625 236.87917Q38.58125 237.56667 38.58125 238.58229Q38.58125 239.09792 38.3625 239.59792Q38.159374 240.08229 37.659374 240.64479Q37.175 241.19167 36.05 242.14479Q35.096874 242.94167 34.815624 243.23854Q34.55 243.51979 34.378124 243.80104L38.596874 243.80104Z" fill-rule="nonzero"/><path fill="#000000" d="M36.425 185.18333L36.425 183.12083L32.70625 183.12083L32.70625 182.15208L36.628124 176.58958L37.4875 176.58958L37.4875 182.15208L38.64375 182.15208L38.64375 183.12083L37.4875 183.12083L37.4875 185.18333L36.425 185.18333ZM36.425 182.15208L36.425 178.29271L33.7375 182.15208L36.425 182.15208Z" fill-rule="nonzero"/><path fill="#000000" d="M38.51875 119.06563L37.471874 119.14375Q37.33125 118.51875 37.08125 118.2375Q36.64375 117.78438 36.01875 117.78438Q35.51875 117.78438 35.128124 118.06563Q34.64375 118.44063 34.346874 119.14375Q34.065624 119.83125 34.05 121.1125Q34.425 120.53438 34.971874 120.25313Q35.534374 119.97188 36.14375 119.97188Q37.190624 119.97188 37.925 120.75313Q38.675 121.53438 38.675 122.75313Q38.675 123.56563 38.315624 124.26875Q37.971874 124.95625 37.3625 125.33125Q36.753124 125.69063 35.9875 125.69063Q34.659374 125.69063 33.83125 124.72188Q33.003124 123.75313 33.003124 121.53438Q33.003124 119.03438 33.925 117.90938Q34.721874 116.925 36.08125 116.925Q37.096874 116.925 37.7375 117.50313Q38.39375 118.06563 38.51875 119.06563ZM34.221874 122.76875Q34.221874 123.31563 34.440624 123.81563Q34.675 124.3 35.08125 124.56563Q35.503124 124.83125 35.971874 124.83125Q36.628124 124.83125 37.1125 124.3Q37.596874 123.75313 37.596874 122.83125Q37.596874 121.94063 37.1125 121.425Q36.64375 120.90938 35.925 120.90938Q35.20625 120.90938 34.70625 121.425Q34.221874 121.94063 34.221874 122.76875Z" fill-rule="nonzero"/><path fill="#000000" d="M34.675 61.260414Q34.01875 61.010414 33.690624 60.572914Q33.378124 60.11979 33.378124 59.510414Q33.378124 58.572914 34.05 57.93229Q34.7375 57.291664 35.846874 57.291664Q36.971874 57.291664 37.659374 57.947914Q38.346874 58.604164 38.346874 59.541664Q38.346874 60.135414 38.034374 60.572914Q37.721874 61.010414 37.08125 61.260414Q37.878124 61.510414 38.284374 62.08854Q38.690624 62.666664 38.690624 63.46354Q38.690624 64.55729 37.909374 65.30729Q37.14375 66.05729 35.8625 66.05729Q34.596874 66.05729 33.815624 65.30729Q33.034374 64.55729 33.034374 63.43229Q33.034374 62.58854 33.45625 62.02604Q33.89375 61.46354 34.675 61.260414ZM34.45625 59.46354Q34.45625 60.072914 34.846874 60.46354Q35.253124 60.854164 35.878124 60.854164Q36.4875 60.854164 36.878124 60.479164Q37.26875 60.08854 37.26875 59.52604Q37.26875 58.947914 36.8625 58.55729Q36.45625 58.15104 35.8625 58.15104Q35.253124 58.15104 34.846874 58.541664Q34.45625 58.93229 34.45625 59.46354ZM34.128124 63.43229Q34.128124 63.885414 34.33125 64.30729Q34.55 64.729164 34.971874 64.96354Q35.39375 65.197914 35.878124 65.197914Q36.628124 65.197914 37.1125 64.71354Q37.6125 64.229164 37.6125 63.479164Q37.6125 62.71354 37.1125 62.21354Q36.6125 61.71354 35.846874 61.71354Q35.096874 61.71354 34.6125 62.21354Q34.128124 62.697914 34.128124 63.43229Z" fill-rule="nonzero"/><path fill="#000000" d="M27.05 315.2L28.159374 315.10626Q28.284374 315.91876 28.721874 316.325Q29.175 316.73126 29.815624 316.73126Q30.565624 316.73126 31.096874 316.15314Q31.628124 315.575 31.628124 314.6375Q31.628124 313.73126 31.1125 313.21564Q30.6125 312.6844 29.784374 312.6844Q29.284374 312.6844 28.8625 312.91876Q28.45625 313.15314 28.221874 313.5125L27.2375 313.3875L28.065624 308.98126L32.346874 308.98126L32.346874 309.98126L28.909374 309.98126L28.45625 312.29376Q29.221874 311.7469 30.065624 311.7469Q31.190624 311.7469 31.95625 312.52814Q32.7375 313.3094 32.7375 314.54376Q32.7375 315.7 32.065624 316.5594Q31.2375 317.59064 29.815624 317.59064Q28.64375 317.59064 27.89375 316.9344Q27.159374 316.27814 27.05 315.2ZM34.05 313.21564Q34.05 311.6844 34.3625 310.7625Q34.675 309.825 35.284374 309.325Q35.909374 308.825 36.846874 308.825Q37.534374 308.825 38.05 309.10626Q38.58125 309.3875 38.925 309.91876Q39.26875 310.4344 39.45625 311.1844Q39.64375 311.9344 39.64375 313.21564Q39.64375 314.73126 39.33125 315.65314Q39.034374 316.575 38.409374 317.09064Q37.8 317.59064 36.846874 317.59064Q35.6125 317.59064 34.89375 316.7Q34.05 315.6375 34.05 313.21564ZM35.128124 313.21564Q35.128124 315.325 35.628124 316.02814Q36.128124 316.73126 36.846874 316.73126Q37.58125 316.73126 38.065624 316.02814Q38.565624 315.325 38.565624 313.21564Q38.565624 311.09064 38.065624 310.40314Q37.58125 309.7 36.83125 309.7Q36.1125 309.7 35.675 310.3094Q35.128124 311.09064 35.128124 313.21564ZM41.05 313.21564Q41.05 311.6844 41.3625 310.7625Q41.675 309.825 42.284374 309.325Q42.909374 308.825 43.846874 308.825Q44.534374 308.825 45.05 309.10626Q45.58125 309.3875 45.925 309.91876Q46.26875 310.4344 46.45625 311.1844Q46.64375 311.9344 46.64375 313.21564Q46.64375 314.73126 46.33125 315.65314Q46.034374 316.575 45.409374 317.09064Q44.8 317.59064 43.846874 317.59064Q42.6125 317.59064 41.89375 316.7Q41.05 315.6375 41.05 313.21564ZM42.128124 313.21564Q42.128124 315.325 42.628124 316.02814Q43.128124 316.73126 43.846874 316.73126Q44.58125 316.73126 45.065624 316.02814Q45.565624 315.325 45.565624 313.21564Q45.565624 311.09064 45.065624 310.40314Q44.58125 309.7 43.83125 309.7Q43.1125 309.7 42.675 310.3094Q42.128124 311.09064 42.128124 313.21564ZM48.6125 317.45L48.6125 316.2469L49.815624 316.2469L49.815624 317.45Q49.815624 318.10626 49.58125 318.5125Q49.346874 318.9344 48.846874 319.15314L48.55 318.7Q48.878124 318.5594 49.034374 318.2625Q49.190624 317.98126 49.221874 317.45L48.6125 317.45ZM51.05 313.21564Q51.05 311.6844 51.3625 310.7625Q51.675 309.825 52.284374 309.325Q52.909374 308.825 53.846874 308.825Q54.534374 308.825 55.05 309.10626Q55.58125 309.3875 55.925 309.91876Q56.26875 310.4344 56.45625 311.1844Q56.64375 311.9344 56.64375 313.21564Q56.64375 314.73126 56.33125 315.65314Q56.034374 316.575 55.409374 317.09064Q54.8 317.59064 53.846874 317.59064Q52.6125 317.59064 51.89375 316.7Q51.05 315.6375 51.05 313.21564ZM52.128124 313.21564Q52.128124 315.325 52.628124 316.02814Q53.128124 316.73126 53.846874 316.73126Q54.58125 316.73126 55.065624 316.02814Q55.565624 315.325 55.565624 313.21564Q55.565624 311.09064 55.065624 310.40314Q54.58125 309.7 53.83125 309.7Q53.1125 309.7 52.675 310.3094Q52.128124 311.09064 52.128124 313.21564ZM58.05 313.21564Q58.05 311.6844 58.3625 310.7625Q58.675 309.825 59.284374 309.325Q59.909374 308.825 60.846874 308.825Q61.534374 308.825 62.05 309.10626Q62.58125 309.3875 62.925 309.91876Q63.26875 310.4344 63.45625 311.1844Q63.64375 311.9344 63.64375 313.21564Q63.64375 314.73126 63.33125 315.65314Q63.034374 316.575 62.409374 317.09064Q61.8 317.59064 60.846874 317.59064Q59.6125 317.59064 58.89375 316.7Q58.05 315.6375 58.05 313.21564ZM59.128124 313.21564Q59.128124 315.325 59.628124 316.02814Q60.128124 316.73126 60.846874 316.73126Q61.58125 316.73126 62.065624 316.02814Q62.565624 315.325 62.565624 313.21564Q62.565624 311.09064 62.065624 310.40314Q61.58125 309.7 60.83125 309.7Q60.1125 309.7 59.675 310.3094Q59.128124 311.09064 59.128124 313.21564Z" fill-rule="nonzero"/><path fill="#000000" d="M134.23 315.2L135.33937 315.10626Q135.46437 315.91876 135.90187 316.325Q136.355 316.73126 136.99562 316.73126Q137.74562 316.73126 138.27687 316.15314Q138.80812 315.575 138.80812 314.6375Q138.80812 313.73126 138.2925 313.21564Q137.7925 312.6844 136.96437 312.6844Q136.46437 312.6844 136.0425 312.91876Q135.63625 313.15314 135.40187 313.5125L134.4175 313.3875L135.24562 308.98126L139.52687 308.98126L139.52687 309.98126L136.08937 309.98126L135.63625 312.29376Q136.40187 311.7469 137.24562 311.7469Q138.37062 311.7469 139.13625 312.52814Q139.9175 313.3094 139.9175 314.54376Q139.9175 315.7 139.24562 316.5594Q138.4175 317.59064 136.99562 317.59064Q135.82375 317.59064 135.07375 316.9344Q134.33937 316.27814 134.23 315.2ZM141.23 315.2L142.33937 315.10626Q142.46437 315.91876 142.90187 316.325Q143.355 316.73126 143.99562 316.73126Q144.74562 316.73126 145.27687 316.15314Q145.80812 315.575 145.80812 314.6375Q145.80812 313.73126 145.2925 313.21564Q144.7925 312.6844 143.96437 312.6844Q143.46437 312.6844 143.0425 312.91876Q142.63625 313.15314 142.40187 313.5125L141.4175 313.3875L142.24562 308.98126L146.52687 308.98126L146.52687 309.98126L143.08937 309.98126L142.63625 312.29376Q143.40187 311.7469 144.24562 311.7469Q145.37062 311.7469 146.13625 312.52814Q146.9175 313.3094 146.9175 314.54376Q146.9175 315.7 146.24562 316.5594Q145.4175 317.59064 143.99562 317.59064Q142.82375 317.59064 142.07375 316.9344Q141.33937 316.27814 141.23 315.2ZM148.23 313.21564Q148.23 311.6844 148.5425 310.7625Q148.855 309.825 149.46437 309.325Q150.08937 308.825 151.02687 308.825Q151.71437 308.825 152.23 309.10626Q152.76125 309.3875 153.105 309.91876Q153.44875 310.4344 153.63625 311.1844Q153.82375 311.9344 153.82375 313.21564Q153.82375 314.73126 153.51125 315.65314Q153.21437 316.575 152.58937 317.09064Q151.98 317.59064 151.02687 317.59064Q149.7925 317.59064 149.07375 316.7Q148.23 315.6375 148.23 313.21564ZM149.30812 313.21564Q149.30812 315.325 149.80812 316.02814Q150.30812 316.73126 151.02687 316.73126Q151.76125 316.73126 152.24562 316.02814Q152.74562 315.325 152.74562 313.21564Q152.74562 311.09064 152.24562 310.40314Q151.76125 309.7 151.01125 309.7Q150.2925 309.7 149.855 310.3094Q149.30812 311.09064 149.30812 313.21564ZM155.7925 317.45L155.7925 316.2469L156.99562 316.2469L156.99562 317.45Q156.99562 318.10626 156.76125 318.5125Q156.52687 318.9344 156.02687 319.15314L155.73 318.7Q156.05812 318.5594 156.21437 318.2625Q156.37062 317.98126 156.40187 317.45L155.7925 317.45ZM158.23 313.21564Q158.23 311.6844 158.5425 310.7625Q158.855 309.825 159.46437 309.325Q160.08937 308.825 161.02687 308.825Q161.71437 308.825 162.23 309.10626Q162.76125 309.3875 163.105 309.91876Q163.44875 310.4344 163.63625 311.1844Q163.82375 311.9344 163.82375 313.21564Q163.82375 314.73126 163.51125 315.65314Q163.21437 316.575 162.58937 317.09064Q161.98 317.59064 161.02687 317.59064Q159.7925 317.59064 159.07375 316.7Q158.23 315.6375 158.23 313.21564ZM159.30812 313.21564Q159.30812 315.325 159.80812 316.02814Q160.30812 316.73126 161.02687 316.73126Q161.76125 316.73126 162.24562 316.02814Q162.74562 315.325 162.74562 313.21564Q162.74562 311.09064 162.24562 310.40314Q161.76125 309.7 161.01125 309.7Q160.2925 309.7 159.855 310.3094Q159.30812 311.09064 159.30812 313.21564ZM165.23 313.21564Q165.23 311.6844 165.5425 310.7625Q165.855 309.825 166.46437 309.325Q167.08937 308.825 168.02687 308.825Q168.71437 308.825 169.23 309.10626Q169.76125 309.3875 170.105 309.91876Q170.44875 310.4344 170.63625 311.1844Q170.82375 311.9344 170.82375 313.21564Q170.82375 314.73126 170.51125 315.65314Q170.21437 316.575 169.58937 317.09064Q168.98 317.59064 168.02687 317.59064Q166.7925 317.59064 166.07375 316.7Q165.23 315.6375 165.23 313.21564ZM166.30812 313.21564Q166.30812 315.325 166.80812 316.02814Q167.30812 316.73126 168.02687 316.73126Q168.76125 316.73126 169.24562 316.02814Q169.74562 315.325 169.74562 313.21564Q169.74562 311.09064 169.24562 310.40314Q168.76125 309.7 168.01125 309.7Q167.2925 309.7 166.855 310.3094Q166.30812 311.09064 166.30812 313.21564Z" fill-rule="nonzero"/><path fill="#000000" d="M246.87875 310.96564L245.83188 311.04376Q245.69125 310.41876 245.44125 310.1375Q245.00375 309.6844 244.37875 309.6844Q243.87875 309.6844 243.48813 309.96564Q243.00375 310.34064 242.70688 311.04376Q242.42563 311.73126 242.41 313.0125Q242.785 312.4344 243.33188 312.15314Q243.89438 311.8719 244.50375 311.8719Q245.55063 311.8719 246.285 312.65314Q247.035 313.4344 247.035 314.65314Q247.035 315.46564 246.67563 316.16876Q246.33188 316.85626 245.7225 317.23126Q245.11313 317.59064 244.3475 317.59064Q243.01938 317.59064 242.19125 316.6219Q241.36313 315.65314 241.36313 313.4344Q241.36313 310.9344 242.285 309.8094Q243.08188 308.825 244.44125 308.825Q245.45688 308.825 246.0975 309.40314Q246.75375 309.96564 246.87875 310.96564ZM242.58188 314.66876Q242.58188 315.21564 242.80063 315.71564Q243.035 316.2 243.44125 316.46564Q243.86313 316.73126 244.33188 316.73126Q244.98813 316.73126 245.4725 316.2Q245.95688 315.65314 245.95688 314.73126Q245.95688 313.84064 245.4725 313.325Q245.00375 312.8094 244.285 312.8094Q243.56625 312.8094 243.06625 313.325Q242.58188 313.84064 242.58188 314.66876ZM248.41 313.21564Q248.41 311.6844 248.7225 310.7625Q249.035 309.825 249.64438 309.325Q250.26938 308.825 251.20688 308.825Q251.89438 308.825 252.41 309.10626Q252.94125 309.3875 253.285 309.91876Q253.62875 310.4344 253.81625 311.1844Q254.00375 311.9344 254.00375 313.21564Q254.00375 314.73126 253.69125 315.65314Q253.39438 316.575 252.76938 317.09064Q252.16 317.59064 251.20688 317.59064Q249.9725 317.59064 249.25375 316.7Q248.41 315.6375 248.41 313.21564ZM249.48813 313.21564Q249.48813 315.325 249.98813 316.02814Q250.48813 316.73126 251.20688 316.73126Q251.94125 316.73126 252.42563 316.02814Q252.92563 315.325 252.92563 313.21564Q252.92563 311.09064 252.42563 310.40314Q251.94125 309.7 251.19125 309.7Q250.4725 309.7 250.035 310.3094Q249.48813 311.09064 249.48813 313.21564ZM255.41 313.21564Q255.41 311.6844 255.7225 310.7625Q256.035 309.825 256.64438 309.325Q257.26938 308.825 258.20688 308.825Q258.89438 308.825 259.41 309.10626Q259.94125 309.3875 260.285 309.91876Q260.62875 310.4344 260.81625 311.1844Q261.00375 311.9344 261.00375 313.21564Q261.00375 314.73126 260.69125 315.65314Q260.39438 316.575 259.76938 317.09064Q259.16 317.59064 258.20688 317.59064Q256.9725 317.59064 256.25375 316.7Q255.41 315.6375 255.41 313.21564ZM256.48813 313.21564Q256.48813 315.325 256.98813 316.02814Q257.48813 316.73126 258.20688 316.73126Q258.94125 316.73126 259.42563 316.02814Q259.92563 315.325 259.92563 313.21564Q259.92563 311.09064 259.42563 310.40314Q258.94125 309.7 258.19125 309.7Q257.4725 309.7 257.035 310.3094Q256.48813 311.09064 256.48813 313.21564ZM262.9725 317.45L262.9725 316.2469L264.17563 316.2469L264.17563 317.45Q264.17563 318.10626 263.94125 318.5125Q263.70688 318.9344 263.20688 319.15314L262.91 318.7Q263.23813 318.5594 263.39438 318.2625Q263.55063 317.98126 263.58188 317.45L262.9725 317.45ZM265.41 313.21564Q265.41 311.6844 265.7225 310.7625Q266.035 309.825 266.64438 309.325Q267.26938 308.825 268.20688 308.825Q268.89438 308.825 269.41 309.10626Q269.94125 309.3875 270.285 309.91876Q270.62875 310.4344 270.81625 311.1844Q271.00375 311.9344 271.00375 313.21564Q271.00375 314.73126 270.69125 315.65314Q270.39438 316.575 269.76938 317.09064Q269.16 317.59064 268.20688 317.59064Q266.9725 317.59064 266.25375 316.7Q265.41 315.6375 265.41 313.21564ZM266.48813 313.21564Q266.48813 315.325 266.98813 316.02814Q267.48813 316.73126 268.20688 316.73126Q268.94125 316.73126 269.42563 316.02814Q269.92563 315.325 269.92563 313.21564Q269.92563 311.09064 269.42563 310.40314Q268.94125 309.7 268.19125 309.7Q267.4725 309.7 267.035 310.3094Q266.48813 311.09064 266.48813 313.21564ZM272.41 313.21564Q272.41 311.6844 272.7225 310.7625Q273.035 309.825 273.64438 309.325Q274.26938 308.825 275.20688 308.825Q275.89438 308.825 276.41 309.10626Q276.94125 309.3875 277.285 309.91876Q277.62875 310.4344 277.81625 311.1844Q278.00375 311.9344 278.00375 313.21564Q278.00375 314.73126 277.69125 315.65314Q277.39438 316.575 276.76938 317.09064Q276.16 317.59064 275.20688 317.59064Q273.9725 317.59064 273.25375 316.7Q272.41 315.6375 272.41 313.21564ZM273.48813 313.21564Q273.48813 315.325 273.98813 316.02814Q274.48813 316.73126 275.20688 316.73126Q275.94125 316.73126 276.42563 316.02814Q276.92563 315.325 276.92563 313.21564Q276.92563 311.09064 276.42563 310.40314Q275.94125 309.7 275.19125 309.7Q274.4725 309.7 274.035 310.3094Q273.48813 311.09064 273.48813 313.21564Z" fill-rule="nonzero"/><path fill="#000000" d="M354.05875 310.96564L353.01187 311.04376Q352.87125 310.41876 352.62125 310.1375Q352.18375 309.6844 351.55875 309.6844Q351.05875 309.6844 350.66812 309.96564Q350.18375 310.34064 349.88687 311.04376Q349.60562 311.73126 349.59 313.0125Q349.965 312.4344 350.51187 312.15314Q351.07437 311.8719 351.68375 311.8719Q352.73062 311.8719 353.465 312.65314Q354.215 313.4344 354.215 314.65314Q354.215 315.46564 353.85562 316.16876Q353.51187 316.85626 352.9025 317.23126Q352.29312 317.59064 351.5275 317.59064Q350.19937 317.59064 349.37125 316.6219Q348.54312 315.65314 348.54312 313.4344Q348.54312 310.9344 349.465 309.8094Q350.26187 308.825 351.62125 308.825Q352.63687 308.825 353.2775 309.40314Q353.93375 309.96564 354.05875 310.96564ZM349.76187 314.66876Q349.76187 315.21564 349.98062 315.71564Q350.215 316.2 350.62125 316.46564Q351.04312 316.73126 351.51187 316.73126Q352.16812 316.73126 352.6525 316.2Q353.13687 315.65314 353.13687 314.73126Q353.13687 313.84064 352.6525 313.325Q352.18375 312.8094 351.465 312.8094Q350.74625 312.8094 350.24625 313.325Q349.76187 313.84064 349.76187 314.66876ZM355.59 315.2L356.69937 315.10626Q356.82437 315.91876 357.26187 316.325Q357.715 316.73126 358.35562 316.73126Q359.10562 316.73126 359.63687 316.15314Q360.16812 315.575 360.16812 314.6375Q360.16812 313.73126 359.6525 313.21564Q359.1525 312.6844 358.32437 312.6844Q357.82437 312.6844 357.4025 312.91876Q356.99625 313.15314 356.76187 313.5125L355.7775 313.3875L356.60562 308.98126L360.88687 308.98126L360.88687 309.98126L357.44937 309.98126L356.99625 312.29376Q357.76187 311.7469 358.60562 311.7469Q359.73062 311.7469 360.49625 312.52814Q361.2775 313.3094 361.2775 314.54376Q361.2775 315.7 360.60562 316.5594Q359.7775 317.59064 358.35562 317.59064Q357.18375 317.59064 356.43375 316.9344Q355.69937 316.27814 355.59 315.2ZM362.59 313.21564Q362.59 311.6844 362.9025 310.7625Q363.215 309.825 363.82437 309.325Q364.44937 308.825 365.38687 308.825Q366.07437 308.825 366.59 309.10626Q367.12125 309.3875 367.465 309.91876Q367.80875 310.4344 367.99625 311.1844Q368.18375 311.9344 368.18375 313.21564Q368.18375 314.73126 367.87125 315.65314Q367.57437 316.575 366.94937 317.09064Q366.34 317.59064 365.38687 317.59064Q364.1525 317.59064 363.43375 316.7Q362.59 315.6375 362.59 313.21564ZM363.66812 313.21564Q363.66812 315.325 364.16812 316.02814Q364.66812 316.73126 365.38687 316.73126Q366.12125 316.73126 366.60562 316.02814Q367.10562 315.325 367.10562 313.21564Q367.10562 311.09064 366.60562 310.40314Q366.12125 309.7 365.37125 309.7Q364.6525 309.7 364.215 310.3094Q363.66812 311.09064 363.66812 313.21564ZM370.1525 317.45L370.1525 316.2469L371.35562 316.2469L371.35562 317.45Q371.35562 318.10626 371.12125 318.5125Q370.88687 318.9344 370.38687 319.15314L370.09 318.7Q370.41812 318.5594 370.57437 318.2625Q370.73062 317.98126 370.76187 317.45L370.1525 317.45ZM372.59 313.21564Q372.59 311.6844 372.9025 310.7625Q373.215 309.825 373.82437 309.325Q374.44937 308.825 375.38687 308.825Q376.07437 308.825 376.59 309.10626Q377.12125 309.3875 377.465 309.91876Q377.80875 310.4344 377.99625 311.1844Q378.18375 311.9344 378.18375 313.21564Q378.18375 314.73126 377.87125 315.65314Q377.57437 316.575 376.94937 317.09064Q376.34 317.59064 375.38687 317.59064Q374.1525 317.59064 373.43375 316.7Q372.59 315.6375 372.59 313.21564ZM373.66812 313.21564Q373.66812 315.325 374.16812 316.02814Q374.66812 316.73126 375.38687 316.73126Q376.12125 316.73126 376.60562 316.02814Q377.10562 315.325 377.10562 313.21564Q377.10562 311.09064 376.60562 310.40314Q376.12125 309.7 375.37125 309.7Q374.6525 309.7 374.215 310.3094Q373.66812 311.09064 373.66812 313.21564ZM379.59 313.21564Q379.59 311.6844 379.9025 310.7625Q380.215 309.825 380.82437 309.325Q381.44937 308.825 382.38687 308.825Q383.07437 308.825 383.59 309.10626Q384.12125 309.3875 384.465 309.91876Q384.80875 310.4344 384.99625 311.1844Q385.18375 311.9344 385.18375 313.21564Q385.18375 314.73126 384.87125 315.65314Q384.57437 316.575 383.94937 317.09064Q383.34 317.59064 382.38687 317.59064Q381.1525 317.59064 380.43375 316.7Q379.59 315.6375 379.59 313.21564ZM380.66812 313.21564Q380.66812 315.325 381.16812 316.02814Q381.66812 316.73126 382.38687 316.73126Q383.12125 316.73126 383.60562 316.02814Q384.10562 315.325 384.10562 313.21564Q384.10562 311.09064 383.60562 310.40314Q383.12125 309.7 382.37125 309.7Q381.6525 309.7 381.215 310.3094Q380.66812 311.09064 380.66812 313.21564Z" fill-rule="nonzero"/><path fill="#000000" d="M455.8325 309.98126L455.8325 308.96564L461.395 308.96564L461.395 309.79376Q460.5825 310.66876 459.77 312.1219Q458.9731 313.5594 458.5356 315.09064Q458.2075 316.16876 458.12936 317.45L457.0356 317.45Q457.05124 316.4344 457.42624 314.9969Q457.81686 313.5594 458.52 312.23126Q459.23874 310.90314 460.05124 309.98126L455.8325 309.98126ZM462.77 313.21564Q462.77 311.6844 463.0825 310.7625Q463.395 309.825 464.00436 309.325Q464.62936 308.825 465.56686 308.825Q466.25436 308.825 466.77 309.10626Q467.30124 309.3875 467.645 309.91876Q467.98874 310.4344 468.17624 311.1844Q468.36374 311.9344 468.36374 313.21564Q468.36374 314.73126 468.05124 315.65314Q467.75436 316.575 467.12936 317.09064Q466.52 317.59064 465.56686 317.59064Q464.3325 317.59064 463.61374 316.7Q462.77 315.6375 462.77 313.21564ZM463.8481 313.21564Q463.8481 315.325 464.3481 316.02814Q464.8481 316.73126 465.56686 316.73126Q466.30124 316.73126 466.7856 316.02814Q467.2856 315.325 467.2856 313.21564Q467.2856 311.09064 466.7856 310.40314Q466.30124 309.7 465.55124 309.7Q464.8325 309.7 464.395 310.3094Q463.8481 311.09064 463.8481 313.21564ZM469.77 313.21564Q469.77 311.6844 470.0825 310.7625Q470.395 309.825 471.00436 309.325Q471.62936 308.825 472.56686 308.825Q473.25436 308.825 473.77 309.10626Q474.30124 309.3875 474.645 309.91876Q474.98874 310.4344 475.17624 311.1844Q475.36374 311.9344 475.36374 313.21564Q475.36374 314.73126 475.05124 315.65314Q474.75436 316.575 474.12936 317.09064Q473.52 317.59064 472.56686 317.59064Q471.3325 317.59064 470.61374 316.7Q469.77 315.6375 469.77 313.21564ZM470.8481 313.21564Q470.8481 315.325 471.3481 316.02814Q471.8481 316.73126 472.56686 316.73126Q473.30124 316.73126 473.7856 316.02814Q474.2856 315.325 474.2856 313.21564Q474.2856 311.09064 473.7856 310.40314Q473.30124 309.7 472.55124 309.7Q471.8325 309.7 471.395 310.3094Q470.8481 311.09064 470.8481 313.21564ZM477.3325 317.45L477.3325 316.2469L478.5356 316.2469L478.5356 317.45Q478.5356 318.10626 478.30124 318.5125Q478.06686 318.9344 477.56686 319.15314L477.27 318.7Q477.5981 318.5594 477.75436 318.2625Q477.9106 317.98126 477.94186 317.45L477.3325 317.45ZM479.77 313.21564Q479.77 311.6844 480.0825 310.7625Q480.395 309.825 481.00436 309.325Q481.62936 308.825 482.56686 308.825Q483.25436 308.825 483.77 309.10626Q484.30124 309.3875 484.645 309.91876Q484.98874 310.4344 485.17624 311.1844Q485.36374 311.9344 485.36374 313.21564Q485.36374 314.73126 485.05124 315.65314Q484.75436 316.575 484.12936 317.09064Q483.52 317.59064 482.56686 317.59064Q481.3325 317.59064 480.61374 316.7Q479.77 315.6375 479.77 313.21564ZM480.8481 313.21564Q480.8481 315.325 481.3481 316.02814Q481.8481 316.73126 482.56686 316.73126Q483.30124 316.73126 483.7856 316.02814Q484.2856 315.325 484.2856 313.21564Q484.2856 311.09064 483.7856 310.40314Q483.30124 309.7 482.55124 309.7Q481.8325 309.7 481.395 310.3094Q480.8481 311.09064 480.8481 313.21564ZM486.77 313.21564Q486.77 311.6844 487.0825 310.7625Q487.395 309.825 488.00436 309.325Q488.62936 308.825 489.56686 308.825Q490.25436 308.825 490.77 309.10626Q491.30124 309.3875 491.645 309.91876Q491.98874 310.4344 492.17624 311.1844Q492.36374 311.9344 492.36374 313.21564Q492.36374 314.73126 492.05124 315.65314Q491.75436 316.575 491.12936 317.09064Q490.52 317.59064 489.56686 317.59064Q488.3325 317.59064 487.61374 316.7Q486.77 315.6375 486.77 313.21564ZM487.8481 313.21564Q487.8481 315.325 488.3481 316.02814Q488.8481 316.73126 489.56686 316.73126Q490.30124 316.73126 490.7856 316.02814Q491.2856 315.325 491.2856 313.21564Q491.2856 311.09064 490.7856 310.40314Q490.30124 309.7 489.55124 309.7Q488.8325 309.7 488.395 310.3094Q487.8481 311.09064 487.8481 313.21564Z" fill-rule="nonzero"/><path fill="#757575" d="M20.159374 37.55L20.159374 23.2375L22.05 23.2375L22.05 29.1125L29.4875 29.1125L29.4875 23.2375L31.378124 23.2375L31.378124 37.55L29.4875 37.55L29.4875 30.8L22.05 30.8L22.05 37.55L20.159374 37.55ZM32.878124 25.253124L32.878124 23.2375L34.64375 23.2375L34.64375 25.253124L32.878124 25.253124ZM32.878124 37.55L32.878124 27.175L34.64375 27.175L34.64375 37.55L32.878124 37.55ZM36.159374 34.45625L37.909374 34.175Q38.05 35.221874 38.721874 35.784374Q39.39375 36.33125 40.596874 36.33125Q41.8 36.33125 42.378124 35.846874Q42.971874 35.346874 42.971874 34.690624Q42.971874 34.096874 42.45625 33.753124Q42.096874 33.51875 40.659374 33.159374Q38.721874 32.659374 37.971874 32.315624Q37.2375 31.95625 36.846874 31.33125Q36.45625 30.690624 36.45625 29.925Q36.45625 29.2375 36.76875 28.64375Q37.096874 28.05 37.64375 27.659374Q38.05 27.3625 38.753124 27.159374Q39.471874 26.940624 40.284374 26.940624Q41.503124 26.940624 42.425 27.3Q43.346874 27.64375 43.784374 28.253124Q44.221874 28.846874 44.39375 29.846874L42.675 30.08125Q42.55 29.284374 41.9875 28.846874Q41.425 28.39375 40.409374 28.39375Q39.190624 28.39375 38.675 28.8Q38.159374 29.190624 38.159374 29.721874Q38.159374 30.065624 38.378124 30.346874Q38.58125 30.628124 39.05 30.815624Q39.315624 30.909374 40.596874 31.253124Q42.471874 31.753124 43.20625 32.08125Q43.940624 32.39375 44.3625 33.003124Q44.784374 33.596874 44.784374 34.503124Q44.784374 35.378124 44.26875 36.159374Q43.753124 36.940624 42.784374 37.3625Q41.815624 37.784374 40.596874 37.784374Q38.58125 37.784374 37.51875 36.940624Q36.45625 36.096874 36.159374 34.45625ZM50.70625 35.971874L50.95625 37.534374Q50.221874 37.690624 49.628124 37.690624Q48.675 37.690624 48.14375 37.39375Q47.628124 37.08125 47.409374 36.596874Q47.190624 36.096874 47.190624 34.51875L47.190624 28.55L45.909374 28.55L45.909374 27.175L47.190624 27.175L47.190624 24.6125L48.940624 23.55L48.940624 27.175L50.70625 27.175L50.70625 28.55L48.940624 28.55L48.940624 34.6125Q48.940624 35.3625 49.034374 35.58125Q49.128124 35.784374 49.33125 35.925Q49.55 36.05 49.940624 36.05Q50.221874 36.05 50.70625 35.971874ZM52.221874 32.3625Q52.221874 29.4875 53.815624 28.096874Q55.159374 26.940624 57.08125 26.940624Q59.221874 26.940624 60.565624 28.346874Q61.925 29.753124 61.925 32.221874Q61.925 34.221874 61.33125 35.378124Q60.7375 36.51875 59.58125 37.159374Q58.440624 37.784374 57.08125 37.784374Q54.89375 37.784374 53.55 36.39375Q52.221874 34.9875 52.221874 32.3625ZM54.01875 32.3625Q54.01875 34.3625 54.878124 35.346874Q55.753124 36.33125 57.08125 36.33125Q58.39375 36.33125 59.253124 35.346874Q60.128124 34.346874 60.128124 32.3Q60.128124 30.378124 59.253124 29.39375Q58.378124 28.39375 57.08125 28.39375Q55.753124 28.39375 54.878124 29.39375Q54.01875 30.378124 54.01875 32.3625ZM63.55 38.409374L65.25313 38.659374Q65.3625 39.45625 65.84688 39.815624Q66.50313 40.3 67.64375 40.3Q68.8625 40.3 69.51875 39.815624Q70.19063 39.33125 70.425 38.45625Q70.56563 37.909374 70.55 36.190624Q69.39375 37.55 67.675 37.55Q65.53438 37.55 64.3625 36.003124Q63.190624 34.45625 63.190624 32.3Q63.190624 30.815624 63.721874 29.565624Q64.26875 28.315624 65.28438 27.628124Q66.31563 26.940624 67.69063 26.940624Q69.51875 26.940624 70.72188 28.425L70.72188 27.175L72.33125 27.175L72.33125 36.14375Q72.33125 38.565624 71.83125 39.565624Q71.34688 40.58125 70.26875 41.159374Q69.20625 41.753124 67.64375 41.753124Q65.8 41.753124 64.64375 40.925Q63.503124 40.096874 63.55 38.409374ZM65.00313 32.175Q65.00313 34.221874 65.81563 35.159374Q66.62813 36.096874 67.84688 36.096874Q69.05 36.096874 69.8625 35.159374Q70.69063 34.221874 70.69063 32.2375Q70.69063 30.33125 69.84688 29.3625Q69.00313 28.39375 67.81563 28.39375Q66.64375 28.39375 65.81563 29.346874Q65.00313 30.3 65.00313 32.175ZM74.84688 37.55L74.84688 27.175L76.425 27.175L76.425 28.753124Q77.03438 27.64375 77.55 27.3Q78.06563 26.940624 78.675 26.940624Q79.56563 26.940624 80.4875 27.503124L79.87813 29.14375Q79.2375 28.753124 78.59688 28.753124Q78.01875 28.753124 77.55 29.1125Q77.09688 29.45625 76.89375 30.065624Q76.6125 31.003124 76.6125 32.1125L76.6125 37.55L74.84688 37.55ZM88.64375 36.26875Q87.65938 37.096874 86.75313 37.440624Q85.84688 37.784374 84.81563 37.784374Q83.1125 37.784374 82.19063 36.95625Q81.26875 36.1125 81.26875 34.815624Q81.26875 34.05 81.6125 33.425Q81.97188 32.8 82.53438 32.425Q83.09688 32.034374 83.8 31.83125Q84.31563 31.70625 85.3625 31.565624Q87.4875 31.315624 88.4875 30.971874Q88.50313 30.6125 88.50313 30.503124Q88.50313 29.440624 88.00313 28.9875Q87.33125 28.39375 86.00313 28.39375Q84.75313 28.39375 84.15938 28.83125Q83.58125 29.26875 83.3 30.378124L81.58125 30.14375Q81.81563 29.034374 82.34688 28.3625Q82.87813 27.675 83.89375 27.315624Q84.90938 26.940624 86.25313 26.940624Q87.58125 26.940624 88.40938 27.253124Q89.2375 27.565624 89.62813 28.05Q90.01875 28.51875 90.175 29.2375Q90.26875 29.690624 90.26875 30.8625L90.26875 33.20625Q90.26875 35.659374 90.37813 36.315624Q90.4875 36.95625 90.83125 37.55L88.9875 37.55Q88.72188 37.003124 88.64375 36.26875ZM88.4875 32.346874Q87.53438 32.7375 85.6125 33.003124Q84.53438 33.159374 84.08125 33.3625Q83.64375 33.55 83.39375 33.925Q83.14375 34.3 83.14375 34.76875Q83.14375 35.471874 83.675 35.940624Q84.20625 36.409374 85.2375 36.409374Q86.25313 36.409374 87.03438 35.971874Q87.83125 35.51875 88.20625 34.753124Q88.4875 34.14375 88.4875 32.9875L88.4875 32.346874ZM92.8625 37.55L92.8625 27.175L94.44063 27.175L94.44063 28.628124Q94.925 27.878124 95.7375 27.409374Q96.55 26.940624 97.58125 26.940624Q98.7375 26.940624 99.47188 27.425Q100.20625 27.89375 100.51875 28.753124Q101.75313 26.940624 103.72188 26.940624Q105.26875 26.940624 106.09688 27.8Q106.925 28.659374 106.925 30.425L106.925 37.55L105.175 37.55L105.175 31.01875Q105.175 29.95625 105.00313 29.503124Q104.83125 29.034374 104.37813 28.753124Q103.94063 28.471874 103.33125 28.471874Q102.2375 28.471874 101.50313 29.20625Q100.78438 29.925 100.78438 31.51875L100.78438 37.55L99.03438 37.55L99.03438 30.815624Q99.03438 29.64375 98.59688 29.065624Q98.175 28.471874 97.19063 28.471874Q96.45625 28.471874 95.81563 28.8625Q95.19063 29.253124 94.90938 30.003124Q94.62813 30.753124 94.62813 32.175L94.62813 37.55L92.8625 37.55ZM115.64375 36.26875Q114.65938 37.096874 113.75313 37.440624Q112.84688 37.784374 111.81563 37.784374Q110.1125 37.784374 109.19063 36.95625Q108.26875 36.1125 108.26875 34.815624Q108.26875 34.05 108.6125 33.425Q108.97188 32.8 109.53438 32.425Q110.09688 32.034374 110.8 31.83125Q111.31563 31.70625 112.3625 31.565624Q114.4875 31.315624 115.4875 30.971874Q115.50313 30.6125 115.50313 30.503124Q115.50313 29.440624 115.00313 28.9875Q114.33125 28.39375 113.00313 28.39375Q111.75313 28.39375 111.15938 28.83125Q110.58125 29.26875 110.3 30.378124L108.58125 30.14375Q108.81563 29.034374 109.34688 28.3625Q109.87813 27.675 110.89375 27.315624Q111.90938 26.940624 113.25313 26.940624Q114.58125 26.940624 115.40938 27.253124Q116.2375 27.565624 116.62813 28.05Q117.01875 28.51875 117.175 29.2375Q117.26875 29.690624 117.26875 30.8625L117.26875 33.20625Q117.26875 35.659374 117.37813 36.315624Q117.4875 36.95625 117.83125 37.55L115.9875 37.55Q115.72188 37.003124 115.64375 36.26875ZM115.4875 32.346874Q114.53438 32.7375 112.6125 33.003124Q111.53438 33.159374 111.08125 33.3625Q110.64375 33.55 110.39375 33.925Q110.14375 34.3 110.14375 34.76875Q110.14375 35.471874 110.675 35.940624Q111.20625 36.409374 112.2375 36.409374Q113.25313 36.409374 114.03438 35.971874Q114.83125 35.51875 115.20625 34.753124Q115.4875 34.14375 115.4875 32.9875L115.4875 32.346874ZM132.59688 37.55L132.59688 36.2375Q131.6125 37.784374 129.69063 37.784374Q128.45625 37.784374 127.40938 37.096874Q126.37813 36.409374 125.8 35.190624Q125.2375 33.971874 125.2375 32.378124Q125.2375 30.815624 125.75313 29.55Q126.26875 28.284374 127.3 27.6125Q128.34688 26.940624 129.6125 26.940624Q130.55 26.940624 131.28438 27.346874Q132.01875 27.7375 132.4875 28.3625L132.4875 23.2375L134.22188 23.2375L134.22188 37.55L132.59688 37.55ZM127.03438 32.378124Q127.03438 34.3625 127.87813 35.346874Q128.72188 36.33125 129.8625 36.33125Q131.01875 36.33125 131.81563 35.39375Q132.62813 34.45625 132.62813 32.51875Q132.62813 30.39375 131.8 29.39375Q130.9875 28.39375 129.78438 28.39375Q128.6125 28.39375 127.81563 29.3625Q127.03438 30.315624 127.03438 32.378124ZM143.97188 34.20625L145.78438 34.440624Q145.3625 36.01875 144.19063 36.909374Q143.03438 37.784374 141.22188 37.784374Q138.95625 37.784374 137.6125 36.39375Q136.28438 34.9875 136.28438 32.45625Q136.28438 29.83125 137.62813 28.39375Q138.97188 26.940624 141.12813 26.940624Q143.20625 26.940624 144.51875 28.3625Q145.84688 29.76875 145.84688 32.346874Q145.84688 32.503124 145.83125 32.815624L138.09688 32.815624Q138.19063 34.51875 139.06563 35.425Q139.94063 36.33125 141.2375 36.33125Q142.20625 36.33125 142.87813 35.83125Q143.56563 35.315624 143.97188 34.20625ZM138.19063 31.3625L143.9875 31.3625Q143.87813 30.065624 143.33125 29.409374Q142.4875 28.39375 141.14375 28.39375Q139.94063 28.39375 139.1125 29.20625Q138.28438 30.003124 138.19063 31.3625ZM154.03438 37.55L154.03438 23.2375L156.89375 23.2375L160.26875 33.3625Q160.7375 34.784374 160.95625 35.4875Q161.20625 34.70625 161.72188 33.190624L165.14375 23.2375L167.69063 23.2375L167.69063 37.55L165.87813 37.55L165.87813 25.565624L161.70625 37.55L160.00313 37.55L155.8625 25.3625L155.8625 37.55L154.03438 37.55ZM177.97188 34.20625L179.78438 34.440624Q179.3625 36.01875 178.19063 36.909374Q177.03438 37.784374 175.22188 37.784374Q172.95625 37.784374 171.6125 36.39375Q170.28438 34.9875 170.28438 32.45625Q170.28438 29.83125 171.62813 28.39375Q172.97188 26.940624 175.12813 26.940624Q177.20625 26.940624 178.51875 28.3625Q179.84688 29.76875 179.84688 32.346874Q179.84688 32.503124 179.83125 32.815624L172.09688 32.815624Q172.19063 34.51875 173.06563 35.425Q173.94063 36.33125 175.2375 36.33125Q176.20625 36.33125 176.87813 35.83125Q177.56563 35.315624 177.97188 34.20625ZM172.19063 31.3625L177.9875 31.3625Q177.87813 30.065624 177.33125 29.409374Q176.4875 28.39375 175.14375 28.39375Q173.94063 28.39375 173.1125 29.20625Q172.28438 30.003124 172.19063 31.3625ZM174.09688 25.89375L175.39375 23.159374L177.69063 23.159374L175.55 25.89375L174.09688 25.89375ZM188.59688 37.55L188.59688 36.2375Q187.6125 37.784374 185.69063 37.784374Q184.45625 37.784374 183.40938 37.096874Q182.37813 36.409374 181.8 35.190624Q181.2375 33.971874 181.2375 32.378124Q181.2375 30.815624 181.75313 29.55Q182.26875 28.284374 183.3 27.6125Q184.34688 26.940624 185.6125 26.940624Q186.55 26.940624 187.28438 27.346874Q188.01875 27.7375 188.4875 28.3625L188.4875 23.2375L190.22188 23.2375L190.22188 37.55L188.59688 37.55ZM183.03438 32.378124Q183.03438 34.3625 183.87813 35.346874Q184.72188 36.33125 185.8625 36.33125Q187.01875 36.33125 187.81563 35.39375Q188.62813 34.45625 188.62813 32.51875Q188.62813 30.39375 187.8 29.39375Q186.9875 28.39375 185.78438 28.39375Q184.6125 28.39375 183.81563 29.3625Q183.03438 30.315624 183.03438 32.378124ZM192.87813 25.253124L192.87813 23.2375L194.64375 23.2375L194.64375 25.253124L192.87813 25.253124ZM192.87813 37.55L192.87813 27.175L194.64375 27.175L194.64375 37.55L192.87813 37.55ZM203.64375 36.26875Q202.65938 37.096874 201.75313 37.440624Q200.84688 37.784374 199.81563 37.784374Q198.1125 37.784374 197.19063 36.95625Q196.26875 36.1125 196.26875 34.815624Q196.26875 34.05 196.6125 33.425Q196.97188 32.8 197.53438 32.425Q198.09688 32.034374 198.8 31.83125Q199.31563 31.70625 200.3625 31.565624Q202.4875 31.315624 203.4875 30.971874Q203.50313 30.6125 203.50313 30.503124Q203.50313 29.440624 203.00313 28.9875Q202.33125 28.39375 201.00313 28.39375Q199.75313 28.39375 199.15938 28.83125Q198.58125 29.26875 198.3 30.378124L196.58125 30.14375Q196.81563 29.034374 197.34688 28.3625Q197.87813 27.675 198.89375 27.315624Q199.90938 26.940624 201.25313 26.940624Q202.58125 26.940624 203.40938 27.253124Q204.2375 27.565624 204.62813 28.05Q205.01875 28.51875 205.175 29.2375Q205.26875 29.690624 205.26875 30.8625L205.26875 33.20625Q205.26875 35.659374 205.37813 36.315624Q205.4875 36.95625 205.83125 37.55L203.9875 37.55Q203.72188 37.003124 203.64375 36.26875ZM203.4875 32.346874Q202.53438 32.7375 200.6125 33.003124Q199.53438 33.159374 199.08125 33.3625Q198.64375 33.55 198.39375 33.925Q198.14375 34.3 198.14375 34.76875Q198.14375 35.471874 198.675 35.940624Q199.20625 36.409374 200.2375 36.409374Q201.25313 36.409374 202.03438 35.971874Q202.83125 35.51875 203.20625 34.753124Q203.4875 34.14375 203.4875 32.9875L203.4875 32.346874Z" fill-rule="nonzero"/></svg>